<mxfile host="app.diagrams.net" modified="2023-11-02T20:01:52.142Z" agent="Mozilla/5.0 (Windows NT 10.0; Win64; x64) AppleWebKit/537.36 (KHTML, like Gecko) Chrome/118.0.0.0 Safari/537.36" etag="lHRgGS3VTdTTY5kI625j" version="22.0.8" type="device">
  <diagram id="8n-jQyqGbLj7jrP2TzG6" name="第 1 页">
    <mxGraphModel dx="3218" dy="2768" grid="1" gridSize="10" guides="1" tooltips="1" connect="1" arrows="1" fold="1" page="1" pageScale="1" pageWidth="1169" pageHeight="1654" math="0" shadow="0">
      <root>
        <mxCell id="0" />
        <mxCell id="1" parent="0" />
        <mxCell id="lRXsfEEctWWa7OxYIGHM-1" value="is" style="rhombus;whiteSpace=wrap;html=1;" parent="1" vertex="1">
          <mxGeometry x="-90" y="160" width="80" height="80" as="geometry" />
        </mxCell>
        <mxCell id="XZ0jSYDA-IjN7aamsQHR-1" style="rounded=0;orthogonalLoop=1;jettySize=auto;html=1;exitX=1;exitY=0.75;exitDx=0;exitDy=0;endArrow=none;endFill=0;" edge="1" parent="1" source="lRXsfEEctWWa7OxYIGHM-2" target="XZ0jSYDA-IjN7aamsQHR-9">
          <mxGeometry relative="1" as="geometry">
            <mxPoint x="612.86" y="241.29000000000002" as="targetPoint" />
          </mxGeometry>
        </mxCell>
        <mxCell id="XZ0jSYDA-IjN7aamsQHR-11" value="m" style="edgeLabel;html=1;align=center;verticalAlign=middle;resizable=0;points=[];fontSize=11;fontFamily=Helvetica;fontColor=default;" vertex="1" connectable="0" parent="XZ0jSYDA-IjN7aamsQHR-1">
          <mxGeometry x="-0.4223" y="-2" relative="1" as="geometry">
            <mxPoint x="1" as="offset" />
          </mxGeometry>
        </mxCell>
        <mxCell id="XZ0jSYDA-IjN7aamsQHR-13" style="edgeStyle=none;shape=connector;rounded=0;orthogonalLoop=1;jettySize=auto;html=1;exitX=1;exitY=1;exitDx=0;exitDy=0;labelBackgroundColor=default;strokeColor=default;align=center;verticalAlign=middle;fontFamily=Helvetica;fontSize=11;fontColor=default;endArrow=none;endFill=0;" edge="1" parent="1" source="lRXsfEEctWWa7OxYIGHM-2" target="XZ0jSYDA-IjN7aamsQHR-14">
          <mxGeometry relative="1" as="geometry">
            <mxPoint x="652.8600000000005" y="363.29" as="targetPoint" />
          </mxGeometry>
        </mxCell>
        <mxCell id="XZ0jSYDA-IjN7aamsQHR-17" value="m" style="edgeLabel;html=1;align=center;verticalAlign=middle;resizable=0;points=[];fontSize=11;fontFamily=Helvetica;fontColor=default;" vertex="1" connectable="0" parent="XZ0jSYDA-IjN7aamsQHR-13">
          <mxGeometry x="0.0472" y="-2" relative="1" as="geometry">
            <mxPoint y="-1" as="offset" />
          </mxGeometry>
        </mxCell>
        <mxCell id="XZ0jSYDA-IjN7aamsQHR-19" style="edgeStyle=none;shape=connector;rounded=0;orthogonalLoop=1;jettySize=auto;html=1;exitX=0;exitY=0.5;exitDx=0;exitDy=0;labelBackgroundColor=default;strokeColor=default;align=center;verticalAlign=middle;fontFamily=Helvetica;fontSize=11;fontColor=default;endArrow=none;endFill=0;entryX=1;entryY=0.5;entryDx=0;entryDy=0;" edge="1" parent="1" source="lRXsfEEctWWa7OxYIGHM-2" target="XZ0jSYDA-IjN7aamsQHR-20">
          <mxGeometry relative="1" as="geometry">
            <mxPoint x="595.5075054229936" y="232.14750542299362" as="targetPoint" />
          </mxGeometry>
        </mxCell>
        <mxCell id="XZ0jSYDA-IjN7aamsQHR-23" value="1" style="edgeLabel;html=1;align=center;verticalAlign=middle;resizable=0;points=[];fontSize=11;fontFamily=Helvetica;fontColor=default;" vertex="1" connectable="0" parent="XZ0jSYDA-IjN7aamsQHR-19">
          <mxGeometry x="-0.1189" relative="1" as="geometry">
            <mxPoint y="1" as="offset" />
          </mxGeometry>
        </mxCell>
        <mxCell id="XZ0jSYDA-IjN7aamsQHR-25" style="edgeStyle=none;shape=connector;rounded=0;orthogonalLoop=1;jettySize=auto;html=1;exitX=0.75;exitY=1;exitDx=0;exitDy=0;labelBackgroundColor=default;strokeColor=default;align=center;verticalAlign=middle;fontFamily=Helvetica;fontSize=11;fontColor=default;endArrow=none;endFill=0;" edge="1" parent="1" source="lRXsfEEctWWa7OxYIGHM-2" target="XZ0jSYDA-IjN7aamsQHR-26">
          <mxGeometry relative="1" as="geometry">
            <mxPoint x="282.86" y="313.29" as="targetPoint" />
          </mxGeometry>
        </mxCell>
        <mxCell id="XZ0jSYDA-IjN7aamsQHR-27" style="edgeStyle=none;shape=connector;rounded=0;orthogonalLoop=1;jettySize=auto;html=1;exitX=0.5;exitY=0;exitDx=0;exitDy=0;labelBackgroundColor=default;strokeColor=default;align=center;verticalAlign=middle;fontFamily=Helvetica;fontSize=11;fontColor=default;endArrow=none;endFill=0;" edge="1" parent="1" source="lRXsfEEctWWa7OxYIGHM-2" target="XZ0jSYDA-IjN7aamsQHR-28">
          <mxGeometry relative="1" as="geometry">
            <mxPoint x="330.36000000000047" y="222.5" as="targetPoint" />
          </mxGeometry>
        </mxCell>
        <mxCell id="XZ0jSYDA-IjN7aamsQHR-36" value="n" style="edgeLabel;html=1;align=center;verticalAlign=middle;resizable=0;points=[];fontSize=11;fontFamily=Helvetica;fontColor=default;" vertex="1" connectable="0" parent="XZ0jSYDA-IjN7aamsQHR-27">
          <mxGeometry x="-0.0472" y="-2" relative="1" as="geometry">
            <mxPoint as="offset" />
          </mxGeometry>
        </mxCell>
        <mxCell id="lRXsfEEctWWa7OxYIGHM-2" value="Account-h" style="html=1;dashed=0;rounded=1;absoluteArcSize=1;arcSize=20;verticalAlign=middle;align=center;whiteSpace=wrap;" parent="1" vertex="1">
          <mxGeometry x="302.86" y="203.29000000000002" width="160" height="50" as="geometry" />
        </mxCell>
        <mxCell id="XZ0jSYDA-IjN7aamsQHR-58" style="edgeStyle=none;shape=connector;rounded=0;orthogonalLoop=1;jettySize=auto;html=1;exitX=1;exitY=0;exitDx=0;exitDy=0;labelBackgroundColor=default;strokeColor=default;align=center;verticalAlign=middle;fontFamily=Helvetica;fontSize=11;fontColor=default;endArrow=none;endFill=0;" edge="1" parent="1" source="lRXsfEEctWWa7OxYIGHM-5" target="XZ0jSYDA-IjN7aamsQHR-59">
          <mxGeometry relative="1" as="geometry">
            <mxPoint x="-110" y="80" as="targetPoint" />
          </mxGeometry>
        </mxCell>
        <mxCell id="XZ0jSYDA-IjN7aamsQHR-62" value="n" style="edgeLabel;html=1;align=center;verticalAlign=middle;resizable=0;points=[];fontSize=11;fontFamily=Helvetica;fontColor=default;" vertex="1" connectable="0" parent="XZ0jSYDA-IjN7aamsQHR-58">
          <mxGeometry x="0.0145" y="-2" relative="1" as="geometry">
            <mxPoint y="-1" as="offset" />
          </mxGeometry>
        </mxCell>
        <mxCell id="XZ0jSYDA-IjN7aamsQHR-63" style="edgeStyle=none;shape=connector;rounded=0;orthogonalLoop=1;jettySize=auto;html=1;exitX=0.5;exitY=0;exitDx=0;exitDy=0;labelBackgroundColor=default;strokeColor=default;align=center;verticalAlign=middle;fontFamily=Helvetica;fontSize=11;fontColor=default;endArrow=none;endFill=0;" edge="1" parent="1" source="lRXsfEEctWWa7OxYIGHM-5" target="XZ0jSYDA-IjN7aamsQHR-64">
          <mxGeometry relative="1" as="geometry">
            <mxPoint x="-240" y="-10" as="targetPoint" />
          </mxGeometry>
        </mxCell>
        <mxCell id="XZ0jSYDA-IjN7aamsQHR-67" value="n" style="edgeLabel;html=1;align=center;verticalAlign=middle;resizable=0;points=[];fontSize=11;fontFamily=Helvetica;fontColor=default;" vertex="1" connectable="0" parent="XZ0jSYDA-IjN7aamsQHR-63">
          <mxGeometry x="-0.0498" y="-1" relative="1" as="geometry">
            <mxPoint as="offset" />
          </mxGeometry>
        </mxCell>
        <mxCell id="lRXsfEEctWWa7OxYIGHM-5" value="&lt;div&gt;Customer&lt;/div&gt;" style="rounded=1;whiteSpace=wrap;html=1;" parent="1" vertex="1">
          <mxGeometry x="-285" y="150" width="120" height="60" as="geometry" />
        </mxCell>
        <mxCell id="lRXsfEEctWWa7OxYIGHM-8" value="&lt;div&gt;Name&lt;/div&gt;" style="ellipse;whiteSpace=wrap;html=1;" parent="1" vertex="1">
          <mxGeometry x="-415" y="370" width="120" height="80" as="geometry" />
        </mxCell>
        <mxCell id="3R_Y1XVPc9Uh8frfxeEI-2" value="DOB" style="ellipse;whiteSpace=wrap;html=1;" parent="1" vertex="1">
          <mxGeometry x="-145" y="370" width="120" height="80" as="geometry" />
        </mxCell>
        <mxCell id="3R_Y1XVPc9Uh8frfxeEI-4" value="gender" style="ellipse;whiteSpace=wrap;html=1;" parent="1" vertex="1">
          <mxGeometry x="-285" y="370" width="120" height="80" as="geometry" />
        </mxCell>
        <mxCell id="3R_Y1XVPc9Uh8frfxeEI-5" value="" style="endArrow=none;html=1;rounded=0;exitX=0.5;exitY=0;exitDx=0;exitDy=0;entryX=0.25;entryY=1;entryDx=0;entryDy=0;" parent="1" source="lRXsfEEctWWa7OxYIGHM-8" target="lRXsfEEctWWa7OxYIGHM-5" edge="1">
          <mxGeometry width="50" height="50" relative="1" as="geometry">
            <mxPoint x="390" y="400" as="sourcePoint" />
            <mxPoint x="440" y="350" as="targetPoint" />
          </mxGeometry>
        </mxCell>
        <mxCell id="3R_Y1XVPc9Uh8frfxeEI-6" value="" style="endArrow=none;html=1;rounded=0;" parent="1" source="3R_Y1XVPc9Uh8frfxeEI-4" target="lRXsfEEctWWa7OxYIGHM-5" edge="1">
          <mxGeometry width="50" height="50" relative="1" as="geometry">
            <mxPoint x="390" y="400" as="sourcePoint" />
            <mxPoint x="240" y="560" as="targetPoint" />
          </mxGeometry>
        </mxCell>
        <mxCell id="3R_Y1XVPc9Uh8frfxeEI-7" value="" style="endArrow=none;html=1;rounded=0;exitX=0.45;exitY=-0.012;exitDx=0;exitDy=0;exitPerimeter=0;" parent="1" source="3R_Y1XVPc9Uh8frfxeEI-2" target="lRXsfEEctWWa7OxYIGHM-5" edge="1">
          <mxGeometry width="50" height="50" relative="1" as="geometry">
            <mxPoint x="390" y="400" as="sourcePoint" />
            <mxPoint x="270" y="560" as="targetPoint" />
          </mxGeometry>
        </mxCell>
        <mxCell id="3R_Y1XVPc9Uh8frfxeEI-12" value="" style="endArrow=none;html=1;rounded=0;exitX=1;exitY=0.5;exitDx=0;exitDy=0;entryX=0;entryY=0.5;entryDx=0;entryDy=0;" parent="1" source="lRXsfEEctWWa7OxYIGHM-1" target="XZ0jSYDA-IjN7aamsQHR-21" edge="1">
          <mxGeometry width="50" height="50" relative="1" as="geometry">
            <mxPoint x="390" y="400" as="sourcePoint" />
            <mxPoint x="440" y="350" as="targetPoint" />
          </mxGeometry>
        </mxCell>
        <mxCell id="3R_Y1XVPc9Uh8frfxeEI-14" value="" style="endArrow=none;html=1;rounded=0;entryX=0;entryY=0.5;entryDx=0;entryDy=0;exitX=1;exitY=0.5;exitDx=0;exitDy=0;" parent="1" source="lRXsfEEctWWa7OxYIGHM-5" target="lRXsfEEctWWa7OxYIGHM-1" edge="1">
          <mxGeometry width="50" height="50" relative="1" as="geometry">
            <mxPoint x="390" y="400" as="sourcePoint" />
            <mxPoint x="440" y="350" as="targetPoint" />
          </mxGeometry>
        </mxCell>
        <mxCell id="3R_Y1XVPc9Uh8frfxeEI-19" value="&lt;div&gt;SSN&lt;/div&gt;" style="ellipse;whiteSpace=wrap;html=1;" parent="1" vertex="1">
          <mxGeometry x="-15" y="370" width="120" height="80" as="geometry" />
        </mxCell>
        <mxCell id="3R_Y1XVPc9Uh8frfxeEI-20" value="" style="endArrow=none;html=1;rounded=0;exitX=0.275;exitY=0.088;exitDx=0;exitDy=0;exitPerimeter=0;" parent="1" source="3R_Y1XVPc9Uh8frfxeEI-19" target="lRXsfEEctWWa7OxYIGHM-5" edge="1">
          <mxGeometry width="50" height="50" relative="1" as="geometry">
            <mxPoint x="390" y="760" as="sourcePoint" />
            <mxPoint x="440" y="710" as="targetPoint" />
          </mxGeometry>
        </mxCell>
        <mxCell id="XZ0jSYDA-IjN7aamsQHR-31" style="edgeStyle=none;shape=connector;rounded=0;orthogonalLoop=1;jettySize=auto;html=1;exitX=0;exitY=0.75;exitDx=0;exitDy=0;labelBackgroundColor=default;strokeColor=default;align=center;verticalAlign=middle;fontFamily=Helvetica;fontSize=11;fontColor=default;endArrow=none;endFill=0;" edge="1" parent="1" source="3R_Y1XVPc9Uh8frfxeEI-22" target="XZ0jSYDA-IjN7aamsQHR-32">
          <mxGeometry relative="1" as="geometry">
            <mxPoint x="180" y="-210" as="targetPoint" />
          </mxGeometry>
        </mxCell>
        <mxCell id="XZ0jSYDA-IjN7aamsQHR-34" value="1" style="edgeLabel;html=1;align=center;verticalAlign=middle;resizable=0;points=[];fontSize=11;fontFamily=Helvetica;fontColor=default;" vertex="1" connectable="0" parent="XZ0jSYDA-IjN7aamsQHR-31">
          <mxGeometry x="-0.0604" y="-1" relative="1" as="geometry">
            <mxPoint x="1" as="offset" />
          </mxGeometry>
        </mxCell>
        <mxCell id="3R_Y1XVPc9Uh8frfxeEI-22" value="Associate-h" style="rounded=1;whiteSpace=wrap;html=1;" parent="1" vertex="1">
          <mxGeometry x="260" y="-270" width="120" height="60" as="geometry" />
        </mxCell>
        <mxCell id="3R_Y1XVPc9Uh8frfxeEI-23" value="Claims" style="rounded=1;whiteSpace=wrap;html=1;" parent="1" vertex="1">
          <mxGeometry x="-644" y="213.29" width="120" height="60" as="geometry" />
        </mxCell>
        <mxCell id="XZ0jSYDA-IjN7aamsQHR-93" style="edgeStyle=none;shape=connector;rounded=0;orthogonalLoop=1;jettySize=auto;html=1;exitX=0;exitY=0.5;exitDx=0;exitDy=0;labelBackgroundColor=default;strokeColor=default;align=center;verticalAlign=middle;fontFamily=Helvetica;fontSize=11;fontColor=default;endArrow=none;endFill=0;entryX=1;entryY=0.5;entryDx=0;entryDy=0;" edge="1" parent="1" source="3R_Y1XVPc9Uh8frfxeEI-24" target="XZ0jSYDA-IjN7aamsQHR-94">
          <mxGeometry relative="1" as="geometry">
            <mxPoint x="180" y="-30" as="targetPoint" />
          </mxGeometry>
        </mxCell>
        <mxCell id="XZ0jSYDA-IjN7aamsQHR-97" value="1" style="edgeLabel;html=1;align=center;verticalAlign=middle;resizable=0;points=[];fontSize=11;fontFamily=Helvetica;fontColor=default;" vertex="1" connectable="0" parent="XZ0jSYDA-IjN7aamsQHR-93">
          <mxGeometry x="-0.1333" y="-1" relative="1" as="geometry">
            <mxPoint as="offset" />
          </mxGeometry>
        </mxCell>
        <mxCell id="3R_Y1XVPc9Uh8frfxeEI-24" value="Product-h" style="rounded=1;whiteSpace=wrap;html=1;" parent="1" vertex="1">
          <mxGeometry x="220" y="-40" width="120" height="60" as="geometry" />
        </mxCell>
        <mxCell id="3R_Y1XVPc9Uh8frfxeEI-25" value="Invoice" style="rounded=1;whiteSpace=wrap;html=1;" parent="1" vertex="1">
          <mxGeometry x="-577.4" y="-30" width="120" height="60" as="geometry" />
        </mxCell>
        <mxCell id="3R_Y1XVPc9Uh8frfxeEI-28" value="Claimant" style="rhombus;whiteSpace=wrap;html=1;" parent="1" vertex="1">
          <mxGeometry x="-450" y="200" width="90" height="80" as="geometry" />
        </mxCell>
        <mxCell id="3R_Y1XVPc9Uh8frfxeEI-33" value="" style="endArrow=none;html=1;rounded=0;entryX=0;entryY=0.5;entryDx=0;entryDy=0;exitX=1;exitY=0.5;exitDx=0;exitDy=0;" parent="1" source="3R_Y1XVPc9Uh8frfxeEI-28" target="lRXsfEEctWWa7OxYIGHM-5" edge="1">
          <mxGeometry width="50" height="50" relative="1" as="geometry">
            <mxPoint x="10" y="600" as="sourcePoint" />
            <mxPoint x="60" y="550" as="targetPoint" />
          </mxGeometry>
        </mxCell>
        <mxCell id="3R_Y1XVPc9Uh8frfxeEI-72" value="1" style="edgeLabel;html=1;align=center;verticalAlign=middle;resizable=0;points=[];" parent="3R_Y1XVPc9Uh8frfxeEI-33" vertex="1" connectable="0">
          <mxGeometry x="0.02" y="2" relative="1" as="geometry">
            <mxPoint as="offset" />
          </mxGeometry>
        </mxCell>
        <mxCell id="3R_Y1XVPc9Uh8frfxeEI-37" value="" style="endArrow=none;html=1;rounded=0;exitX=1;exitY=0.5;exitDx=0;exitDy=0;entryX=0;entryY=0.5;entryDx=0;entryDy=0;" parent="1" source="3R_Y1XVPc9Uh8frfxeEI-23" target="3R_Y1XVPc9Uh8frfxeEI-28" edge="1">
          <mxGeometry width="50" height="50" relative="1" as="geometry">
            <mxPoint x="-550" y="300" as="sourcePoint" />
            <mxPoint x="-500" y="250" as="targetPoint" />
          </mxGeometry>
        </mxCell>
        <mxCell id="3R_Y1XVPc9Uh8frfxeEI-73" value="m" style="edgeLabel;html=1;align=center;verticalAlign=middle;resizable=0;points=[];" parent="3R_Y1XVPc9Uh8frfxeEI-37" vertex="1" connectable="0">
          <mxGeometry x="-0.5" relative="1" as="geometry">
            <mxPoint x="25" y="1" as="offset" />
          </mxGeometry>
        </mxCell>
        <mxCell id="3R_Y1XVPc9Uh8frfxeEI-39" value="Initiate&amp;nbsp;" style="rhombus;whiteSpace=wrap;html=1;" parent="1" vertex="1">
          <mxGeometry x="-415" y="30" width="80" height="80" as="geometry" />
        </mxCell>
        <mxCell id="3R_Y1XVPc9Uh8frfxeEI-41" value="" style="endArrow=none;html=1;rounded=0;exitX=0;exitY=0.5;exitDx=0;exitDy=0;entryX=1;entryY=1;entryDx=0;entryDy=0;" parent="1" source="3R_Y1XVPc9Uh8frfxeEI-39" target="3R_Y1XVPc9Uh8frfxeEI-25" edge="1">
          <mxGeometry width="50" height="50" relative="1" as="geometry">
            <mxPoint x="-840" y="-400" as="sourcePoint" />
            <mxPoint x="-790" y="-450" as="targetPoint" />
          </mxGeometry>
        </mxCell>
        <mxCell id="3R_Y1XVPc9Uh8frfxeEI-81" value="m" style="edgeLabel;html=1;align=center;verticalAlign=middle;resizable=0;points=[];" parent="3R_Y1XVPc9Uh8frfxeEI-41" vertex="1" connectable="0">
          <mxGeometry x="0.2333" relative="1" as="geometry">
            <mxPoint as="offset" />
          </mxGeometry>
        </mxCell>
        <mxCell id="3R_Y1XVPc9Uh8frfxeEI-42" value="" style="endArrow=none;html=1;rounded=0;exitX=0;exitY=0;exitDx=0;exitDy=0;" parent="1" source="lRXsfEEctWWa7OxYIGHM-5" target="3R_Y1XVPc9Uh8frfxeEI-39" edge="1">
          <mxGeometry width="50" height="50" relative="1" as="geometry">
            <mxPoint x="340" y="490" as="sourcePoint" />
            <mxPoint x="390" y="440" as="targetPoint" />
          </mxGeometry>
        </mxCell>
        <mxCell id="3R_Y1XVPc9Uh8frfxeEI-80" value="1" style="edgeLabel;html=1;align=center;verticalAlign=middle;resizable=0;points=[];" parent="3R_Y1XVPc9Uh8frfxeEI-42" vertex="1" connectable="0">
          <mxGeometry x="0.1047" y="-1" relative="1" as="geometry">
            <mxPoint y="1" as="offset" />
          </mxGeometry>
        </mxCell>
        <mxCell id="3R_Y1XVPc9Uh8frfxeEI-43" value="Account Name" style="ellipse;whiteSpace=wrap;html=1;" parent="1" vertex="1">
          <mxGeometry x="252.86" y="363.29" width="120" height="80" as="geometry" />
        </mxCell>
        <mxCell id="3R_Y1XVPc9Uh8frfxeEI-44" value="Address" style="ellipse;whiteSpace=wrap;html=1;" parent="1" vertex="1">
          <mxGeometry x="342.86" y="453.29" width="120" height="80" as="geometry" />
        </mxCell>
        <mxCell id="3R_Y1XVPc9Uh8frfxeEI-45" value="" style="endArrow=none;html=1;rounded=0;exitX=1;exitY=0;exitDx=0;exitDy=0;entryX=0.5;entryY=1;entryDx=0;entryDy=0;" parent="1" source="3R_Y1XVPc9Uh8frfxeEI-43" target="lRXsfEEctWWa7OxYIGHM-2" edge="1">
          <mxGeometry width="50" height="50" relative="1" as="geometry">
            <mxPoint x="262.86" y="233.29000000000002" as="sourcePoint" />
            <mxPoint x="332.86" y="263.29" as="targetPoint" />
          </mxGeometry>
        </mxCell>
        <mxCell id="3R_Y1XVPc9Uh8frfxeEI-46" value="" style="endArrow=none;html=1;rounded=0;entryX=0.632;entryY=1.049;entryDx=0;entryDy=0;entryPerimeter=0;" parent="1" source="3R_Y1XVPc9Uh8frfxeEI-44" target="lRXsfEEctWWa7OxYIGHM-2" edge="1">
          <mxGeometry width="50" height="50" relative="1" as="geometry">
            <mxPoint x="262.86" y="233.29000000000002" as="sourcePoint" />
            <mxPoint x="332.86" y="323.29" as="targetPoint" />
          </mxGeometry>
        </mxCell>
        <mxCell id="3R_Y1XVPc9Uh8frfxeEI-47" value="Name" style="ellipse;whiteSpace=wrap;html=1;" parent="1" vertex="1">
          <mxGeometry x="110" y="-370" width="120" height="80" as="geometry" />
        </mxCell>
        <mxCell id="3R_Y1XVPc9Uh8frfxeEI-48" value="&lt;a style=&quot;box-sizing: border-box; cursor: pointer; outline: none; -webkit-tap-highlight-color: transparent; line-height: 22.5px; font-size: 15px; font-family: &amp;quot;PingFang SC&amp;quot;, &amp;quot;Segoe UI&amp;quot;, Arial, &amp;quot;Microsoft YaHei&amp;quot;, 微软雅黑, 宋体, &amp;quot;Malgun Gothic&amp;quot;, sans-serif; text-align: start; background-color: rgb(255, 255, 255);&quot; class=&quot;color_pc_blue_text&quot; data-keyword=&quot;employee ID number&quot;&gt;&lt;font style=&quot;&quot; color=&quot;#04060d&quot;&gt;Middel Initial&lt;/font&gt;&lt;/a&gt;" style="ellipse;whiteSpace=wrap;html=1;" parent="1" vertex="1">
          <mxGeometry x="230" y="-430" width="120" height="80" as="geometry" />
        </mxCell>
        <mxCell id="3R_Y1XVPc9Uh8frfxeEI-49" value="" style="endArrow=none;html=1;rounded=0;entryX=0.742;entryY=0.963;entryDx=0;entryDy=0;entryPerimeter=0;" parent="1" source="3R_Y1XVPc9Uh8frfxeEI-22" target="3R_Y1XVPc9Uh8frfxeEI-47" edge="1">
          <mxGeometry width="50" height="50" relative="1" as="geometry">
            <mxPoint x="100" y="30" as="sourcePoint" />
            <mxPoint x="150" y="-20" as="targetPoint" />
          </mxGeometry>
        </mxCell>
        <mxCell id="3R_Y1XVPc9Uh8frfxeEI-50" value="" style="endArrow=none;html=1;rounded=0;" parent="1" source="3R_Y1XVPc9Uh8frfxeEI-22" target="3R_Y1XVPc9Uh8frfxeEI-48" edge="1">
          <mxGeometry width="50" height="50" relative="1" as="geometry">
            <mxPoint x="285" y="-240" as="sourcePoint" />
            <mxPoint x="335" y="-290" as="targetPoint" />
          </mxGeometry>
        </mxCell>
        <mxCell id="3R_Y1XVPc9Uh8frfxeEI-51" value="View&amp;nbsp;" style="rhombus;whiteSpace=wrap;html=1;" parent="1" vertex="1">
          <mxGeometry x="290" y="80" width="80" height="80" as="geometry" />
        </mxCell>
        <mxCell id="3R_Y1XVPc9Uh8frfxeEI-52" value="" style="endArrow=none;html=1;rounded=0;entryX=0.852;entryY=0.983;entryDx=0;entryDy=0;entryPerimeter=0;" parent="1" source="3R_Y1XVPc9Uh8frfxeEI-51" target="3R_Y1XVPc9Uh8frfxeEI-24" edge="1">
          <mxGeometry width="50" height="50" relative="1" as="geometry">
            <mxPoint x="140" y="140" as="sourcePoint" />
            <mxPoint x="190" y="90" as="targetPoint" />
          </mxGeometry>
        </mxCell>
        <mxCell id="3R_Y1XVPc9Uh8frfxeEI-85" value="m" style="edgeLabel;html=1;align=center;verticalAlign=middle;resizable=0;points=[];" parent="3R_Y1XVPc9Uh8frfxeEI-52" vertex="1" connectable="0">
          <mxGeometry x="0.4873" y="2" relative="1" as="geometry">
            <mxPoint as="offset" />
          </mxGeometry>
        </mxCell>
        <mxCell id="3R_Y1XVPc9Uh8frfxeEI-53" value="" style="endArrow=none;html=1;rounded=0;exitX=0.75;exitY=0;exitDx=0;exitDy=0;" parent="1" source="3R_Y1XVPc9Uh8frfxeEI-24" target="3R_Y1XVPc9Uh8frfxeEI-54" edge="1">
          <mxGeometry width="50" height="50" relative="1" as="geometry">
            <mxPoint x="490" y="-40" as="sourcePoint" />
            <mxPoint x="540" y="-90" as="targetPoint" />
          </mxGeometry>
        </mxCell>
        <mxCell id="3R_Y1XVPc9Uh8frfxeEI-89" value="n" style="edgeLabel;html=1;align=center;verticalAlign=middle;resizable=0;points=[];" parent="3R_Y1XVPc9Uh8frfxeEI-53" vertex="1" connectable="0">
          <mxGeometry x="0.252" y="2" relative="1" as="geometry">
            <mxPoint as="offset" />
          </mxGeometry>
        </mxCell>
        <mxCell id="3R_Y1XVPc9Uh8frfxeEI-54" value="sell" style="rhombus;whiteSpace=wrap;html=1;" parent="1" vertex="1">
          <mxGeometry x="280" y="-170" width="80" height="80" as="geometry" />
        </mxCell>
        <mxCell id="3R_Y1XVPc9Uh8frfxeEI-55" value="" style="endArrow=none;html=1;rounded=0;entryX=0.5;entryY=1;entryDx=0;entryDy=0;exitX=0.5;exitY=0;exitDx=0;exitDy=0;" parent="1" source="3R_Y1XVPc9Uh8frfxeEI-54" target="3R_Y1XVPc9Uh8frfxeEI-22" edge="1">
          <mxGeometry width="50" height="50" relative="1" as="geometry">
            <mxPoint x="420" y="-110" as="sourcePoint" />
            <mxPoint x="470" y="-160" as="targetPoint" />
          </mxGeometry>
        </mxCell>
        <mxCell id="XZ0jSYDA-IjN7aamsQHR-98" value="m" style="edgeLabel;html=1;align=center;verticalAlign=middle;resizable=0;points=[];fontSize=11;fontFamily=Helvetica;fontColor=default;" vertex="1" connectable="0" parent="3R_Y1XVPc9Uh8frfxeEI-55">
          <mxGeometry x="0.1857" y="-1" relative="1" as="geometry">
            <mxPoint y="1" as="offset" />
          </mxGeometry>
        </mxCell>
        <mxCell id="3R_Y1XVPc9Uh8frfxeEI-56" value="" style="endArrow=none;html=1;rounded=0;entryX=0.875;entryY=0.043;entryDx=0;entryDy=0;entryPerimeter=0;exitX=0.625;exitY=1;exitDx=0;exitDy=0;exitPerimeter=0;" parent="1" source="3R_Y1XVPc9Uh8frfxeEI-51" target="lRXsfEEctWWa7OxYIGHM-2" edge="1">
          <mxGeometry width="50" height="50" relative="1" as="geometry">
            <mxPoint x="452.86000000000047" y="240" as="sourcePoint" />
            <mxPoint x="312.86" y="180" as="targetPoint" />
          </mxGeometry>
        </mxCell>
        <mxCell id="3R_Y1XVPc9Uh8frfxeEI-84" value="1" style="edgeLabel;html=1;align=center;verticalAlign=middle;resizable=0;points=[];" parent="3R_Y1XVPc9Uh8frfxeEI-56" vertex="1" connectable="0">
          <mxGeometry x="0.0268" y="-2" relative="1" as="geometry">
            <mxPoint as="offset" />
          </mxGeometry>
        </mxCell>
        <mxCell id="3R_Y1XVPc9Uh8frfxeEI-57" value="DOB" style="ellipse;whiteSpace=wrap;html=1;" parent="1" vertex="1">
          <mxGeometry x="370" y="-420" width="120" height="80" as="geometry" />
        </mxCell>
        <mxCell id="3R_Y1XVPc9Uh8frfxeEI-58" value="" style="endArrow=none;html=1;rounded=0;exitX=1;exitY=0.25;exitDx=0;exitDy=0;" parent="1" source="3R_Y1XVPc9Uh8frfxeEI-22" target="3R_Y1XVPc9Uh8frfxeEI-60" edge="1">
          <mxGeometry width="50" height="50" relative="1" as="geometry">
            <mxPoint x="580" y="-260" as="sourcePoint" />
            <mxPoint x="630" y="-310" as="targetPoint" />
          </mxGeometry>
        </mxCell>
        <mxCell id="3R_Y1XVPc9Uh8frfxeEI-59" value="" style="endArrow=none;html=1;rounded=0;exitX=0.75;exitY=0;exitDx=0;exitDy=0;entryX=0;entryY=1;entryDx=0;entryDy=0;" parent="1" source="3R_Y1XVPc9Uh8frfxeEI-22" target="3R_Y1XVPc9Uh8frfxeEI-57" edge="1">
          <mxGeometry width="50" height="50" relative="1" as="geometry">
            <mxPoint x="420" y="-270" as="sourcePoint" />
            <mxPoint x="471" y="-299" as="targetPoint" />
          </mxGeometry>
        </mxCell>
        <mxCell id="3R_Y1XVPc9Uh8frfxeEI-60" value="&lt;div style=&quot;box-sizing: border-box; margin: 0px; padding: 0px; zoom: var(--main-zoom-scale); clear: both; position: relative; color: rgb(42, 43, 46); outline: none; line-height: 21px;&quot; class=&quot;result color_text_1&quot; id=&quot;fanyiContenteditable&quot;&gt;&lt;div style=&quot;box-sizing: border-box; margin: 0px; padding: 0px; zoom: var(--main-zoom-scale); clear: both; position: relative; outline: none; line-height: 21px;&quot; class=&quot;result color_text_1&quot; id=&quot;fanyiContenteditable&quot;&gt;&lt;ul style=&quot;box-sizing: border-box; margin: 0px; padding: 0px;&quot;&gt;&lt;li style=&quot;border-color: var(--border-color); box-sizing: border-box; margin: 0px; padding: 0px; list-style: none;&quot;&gt;&lt;p style=&quot;border-color: var(--border-color); box-sizing: border-box; margin: 0px 0px 2px; padding: 0px; line-height: 21px; display: inline;&quot; class=&quot;src grammarSection highlight&quot; data-group=&quot;1-1&quot;&gt;&lt;font style=&quot;font-size: 12px;&quot;&gt;TenureDate&lt;/font&gt;&lt;/p&gt;&lt;/li&gt;&lt;/ul&gt;&lt;/div&gt;&lt;/div&gt;&lt;div style=&quot;box-sizing: border-box; margin: 8px 0px 0px; padding: 0px; zoom: var(--main-zoom-scale); color: rgb(147, 149, 153); line-height: 18px; display: inline-block; font-family: &amp;quot;PingFang SC&amp;quot;, &amp;quot;Segoe UI&amp;quot;, Arial, &amp;quot;Microsoft YaHei&amp;quot;, 微软雅黑, 宋体, &amp;quot;Malgun Gothic&amp;quot;, sans-serif; text-align: start; background-color: rgb(255, 255, 255);&quot; class=&quot;color_text_3 area&quot;&gt;&lt;/div&gt;" style="ellipse;whiteSpace=wrap;html=1;" parent="1" vertex="1">
          <mxGeometry x="480" y="-370" width="120" height="80" as="geometry" />
        </mxCell>
        <mxCell id="3R_Y1XVPc9Uh8frfxeEI-61" value="&lt;div&gt;LineofBusiness&lt;/div&gt;" style="ellipse;whiteSpace=wrap;html=1;" parent="1" vertex="1">
          <mxGeometry x="410" y="-190" width="120" height="80" as="geometry" />
        </mxCell>
        <mxCell id="3R_Y1XVPc9Uh8frfxeEI-62" value="" style="endArrow=none;html=1;rounded=0;exitX=1;exitY=0.25;exitDx=0;exitDy=0;" parent="1" source="3R_Y1XVPc9Uh8frfxeEI-24" target="3R_Y1XVPc9Uh8frfxeEI-61" edge="1">
          <mxGeometry width="50" height="50" relative="1" as="geometry">
            <mxPoint x="340" y="10" as="sourcePoint" />
            <mxPoint x="390" y="-40" as="targetPoint" />
          </mxGeometry>
        </mxCell>
        <mxCell id="3R_Y1XVPc9Uh8frfxeEI-63" value="Description" style="ellipse;whiteSpace=wrap;html=1;" parent="1" vertex="1">
          <mxGeometry x="420.5" y="-100" width="120" height="80" as="geometry" />
        </mxCell>
        <mxCell id="3R_Y1XVPc9Uh8frfxeEI-64" value="" style="endArrow=none;html=1;rounded=0;exitX=1;exitY=0.5;exitDx=0;exitDy=0;entryX=0;entryY=0.5;entryDx=0;entryDy=0;" parent="1" source="3R_Y1XVPc9Uh8frfxeEI-24" target="3R_Y1XVPc9Uh8frfxeEI-63" edge="1">
          <mxGeometry width="50" height="50" relative="1" as="geometry">
            <mxPoint x="350" y="90" as="sourcePoint" />
            <mxPoint x="400" y="40" as="targetPoint" />
          </mxGeometry>
        </mxCell>
        <mxCell id="3R_Y1XVPc9Uh8frfxeEI-65" value="&lt;div&gt;Claim#&lt;/div&gt;" style="ellipse;whiteSpace=wrap;html=1;" parent="1" vertex="1">
          <mxGeometry x="-920" y="130" width="120" height="80" as="geometry" />
        </mxCell>
        <mxCell id="3R_Y1XVPc9Uh8frfxeEI-66" value="" style="endArrow=none;html=1;rounded=0;exitX=1;exitY=0.5;exitDx=0;exitDy=0;entryX=0;entryY=0;entryDx=0;entryDy=0;" parent="1" source="3R_Y1XVPc9Uh8frfxeEI-65" edge="1" target="3R_Y1XVPc9Uh8frfxeEI-23">
          <mxGeometry width="50" height="50" relative="1" as="geometry">
            <mxPoint x="-740" y="153" as="sourcePoint" />
            <mxPoint x="-690" y="103" as="targetPoint" />
          </mxGeometry>
        </mxCell>
        <mxCell id="3R_Y1XVPc9Uh8frfxeEI-67" value="&lt;div&gt;ClaimDate&lt;/div&gt;" style="ellipse;whiteSpace=wrap;html=1;" parent="1" vertex="1">
          <mxGeometry x="-903" y="240" width="120" height="80" as="geometry" />
        </mxCell>
        <mxCell id="3R_Y1XVPc9Uh8frfxeEI-68" value="&lt;div&gt;SettleDate&lt;/div&gt;" style="ellipse;whiteSpace=wrap;html=1;" parent="1" vertex="1">
          <mxGeometry x="-903" y="340" width="120" height="80" as="geometry" />
        </mxCell>
        <mxCell id="3R_Y1XVPc9Uh8frfxeEI-69" value="" style="endArrow=none;html=1;rounded=0;entryX=0;entryY=0.75;entryDx=0;entryDy=0;" parent="1" target="3R_Y1XVPc9Uh8frfxeEI-23" edge="1">
          <mxGeometry width="50" height="50" relative="1" as="geometry">
            <mxPoint x="-790" y="300" as="sourcePoint" />
            <mxPoint x="-740" y="250" as="targetPoint" />
          </mxGeometry>
        </mxCell>
        <mxCell id="3R_Y1XVPc9Uh8frfxeEI-70" value="" style="endArrow=none;html=1;rounded=0;entryX=0.058;entryY=0.983;entryDx=0;entryDy=0;entryPerimeter=0;" parent="1" target="3R_Y1XVPc9Uh8frfxeEI-23" edge="1">
          <mxGeometry width="50" height="50" relative="1" as="geometry">
            <mxPoint x="-790" y="400" as="sourcePoint" />
            <mxPoint x="-740" y="350" as="targetPoint" />
          </mxGeometry>
        </mxCell>
        <mxCell id="3R_Y1XVPc9Uh8frfxeEI-74" value="&lt;div&gt;InvoiceNumber&lt;/div&gt;" style="ellipse;whiteSpace=wrap;html=1;" parent="1" vertex="1">
          <mxGeometry x="-767.4" y="-50" width="120" height="80" as="geometry" />
        </mxCell>
        <mxCell id="3R_Y1XVPc9Uh8frfxeEI-75" value="&lt;div&gt;PaidDate&lt;/div&gt;" style="ellipse;whiteSpace=wrap;html=1;" parent="1" vertex="1">
          <mxGeometry x="-767.4" y="50" width="120" height="80" as="geometry" />
        </mxCell>
        <mxCell id="3R_Y1XVPc9Uh8frfxeEI-76" value="" style="endArrow=none;html=1;rounded=0;exitX=0;exitY=0.5;exitDx=0;exitDy=0;" parent="1" source="3R_Y1XVPc9Uh8frfxeEI-25" target="3R_Y1XVPc9Uh8frfxeEI-74" edge="1">
          <mxGeometry width="50" height="50" relative="1" as="geometry">
            <mxPoint x="-1097.4" y="-480" as="sourcePoint" />
            <mxPoint x="-1047.4" y="-530" as="targetPoint" />
          </mxGeometry>
        </mxCell>
        <mxCell id="3R_Y1XVPc9Uh8frfxeEI-77" value="" style="endArrow=none;html=1;rounded=0;exitX=0;exitY=1;exitDx=0;exitDy=0;" parent="1" source="3R_Y1XVPc9Uh8frfxeEI-25" target="3R_Y1XVPc9Uh8frfxeEI-75" edge="1">
          <mxGeometry width="50" height="50" relative="1" as="geometry">
            <mxPoint x="-1127.4" y="-420" as="sourcePoint" />
            <mxPoint x="-1077.4" y="-470" as="targetPoint" />
          </mxGeometry>
        </mxCell>
        <mxCell id="3R_Y1XVPc9Uh8frfxeEI-78" value="Invoice Detail Activity" style="ellipse;whiteSpace=wrap;html=1;" parent="1" vertex="1">
          <mxGeometry x="-767.4" y="-150" width="120" height="80" as="geometry" />
        </mxCell>
        <mxCell id="3R_Y1XVPc9Uh8frfxeEI-79" value="" style="endArrow=none;html=1;rounded=0;entryX=0.957;entryY=0.713;entryDx=0;entryDy=0;entryPerimeter=0;exitX=0.093;exitY=0.012;exitDx=0;exitDy=0;exitPerimeter=0;" parent="1" target="3R_Y1XVPc9Uh8frfxeEI-78" edge="1" source="3R_Y1XVPc9Uh8frfxeEI-25">
          <mxGeometry width="50" height="50" relative="1" as="geometry">
            <mxPoint x="-1087.4" y="-530" as="sourcePoint" />
            <mxPoint x="-1037.4" y="-580" as="targetPoint" />
          </mxGeometry>
        </mxCell>
        <mxCell id="3R_Y1XVPc9Uh8frfxeEI-86" value="SeriesName" style="ellipse;whiteSpace=wrap;html=1;" parent="1" vertex="1">
          <mxGeometry x="390" y="-20" width="130" height="90" as="geometry" />
        </mxCell>
        <mxCell id="3R_Y1XVPc9Uh8frfxeEI-87" value="" style="endArrow=none;html=1;rounded=0;entryX=0;entryY=0.363;entryDx=0;entryDy=0;entryPerimeter=0;" parent="1" source="3R_Y1XVPc9Uh8frfxeEI-24" target="3R_Y1XVPc9Uh8frfxeEI-86" edge="1">
          <mxGeometry width="50" height="50" relative="1" as="geometry">
            <mxPoint x="310" y="110" as="sourcePoint" />
            <mxPoint x="360" y="60" as="targetPoint" />
          </mxGeometry>
        </mxCell>
        <mxCell id="XZ0jSYDA-IjN7aamsQHR-5" style="rounded=0;orthogonalLoop=1;jettySize=auto;html=1;endArrow=none;endFill=0;exitX=1;exitY=0.75;exitDx=0;exitDy=0;" edge="1" parent="1" source="XZ0jSYDA-IjN7aamsQHR-2" target="XZ0jSYDA-IjN7aamsQHR-6">
          <mxGeometry relative="1" as="geometry">
            <mxPoint x="1062.86" y="233.29000000000002" as="targetPoint" />
            <mxPoint x="952.86" y="263.29" as="sourcePoint" />
          </mxGeometry>
        </mxCell>
        <mxCell id="XZ0jSYDA-IjN7aamsQHR-10" style="edgeStyle=none;shape=connector;rounded=0;orthogonalLoop=1;jettySize=auto;html=1;exitX=0;exitY=0.5;exitDx=0;exitDy=0;entryX=1;entryY=0.5;entryDx=0;entryDy=0;labelBackgroundColor=default;strokeColor=default;align=center;verticalAlign=middle;fontFamily=Helvetica;fontSize=11;fontColor=default;endArrow=none;endFill=0;" edge="1" parent="1" source="XZ0jSYDA-IjN7aamsQHR-2" target="XZ0jSYDA-IjN7aamsQHR-9">
          <mxGeometry relative="1" as="geometry" />
        </mxCell>
        <mxCell id="XZ0jSYDA-IjN7aamsQHR-12" value="n" style="edgeLabel;html=1;align=center;verticalAlign=middle;resizable=0;points=[];fontSize=11;fontFamily=Helvetica;fontColor=default;" vertex="1" connectable="0" parent="XZ0jSYDA-IjN7aamsQHR-10">
          <mxGeometry x="-0.4933" y="-2" relative="1" as="geometry">
            <mxPoint x="-20" y="2" as="offset" />
          </mxGeometry>
        </mxCell>
        <mxCell id="XZ0jSYDA-IjN7aamsQHR-2" value="BillingAccount-h" style="rounded=1;whiteSpace=wrap;html=1;" vertex="1" parent="1">
          <mxGeometry x="832.86" y="213.29000000000002" width="120" height="60" as="geometry" />
        </mxCell>
        <mxCell id="XZ0jSYDA-IjN7aamsQHR-6" value="Billing Address" style="ellipse;whiteSpace=wrap;html=1;fontFamily=Helvetica;fontSize=11;fontColor=default;" vertex="1" parent="1">
          <mxGeometry x="1072.86" y="248.29000000000002" width="120" height="80" as="geometry" />
        </mxCell>
        <mxCell id="XZ0jSYDA-IjN7aamsQHR-7" value="" style="rounded=0;orthogonalLoop=1;jettySize=auto;html=1;exitX=1;exitY=0.25;exitDx=0;exitDy=0;endArrow=none;endFill=0;" edge="1" parent="1" source="XZ0jSYDA-IjN7aamsQHR-2" target="XZ0jSYDA-IjN7aamsQHR-4">
          <mxGeometry relative="1" as="geometry">
            <mxPoint x="1072.86" y="163.29000000000002" as="targetPoint" />
            <mxPoint x="962.86" y="213.29000000000002" as="sourcePoint" />
          </mxGeometry>
        </mxCell>
        <mxCell id="XZ0jSYDA-IjN7aamsQHR-4" value="BAccount Name" style="ellipse;whiteSpace=wrap;html=1;" vertex="1" parent="1">
          <mxGeometry x="1072.86" y="133.29000000000002" width="120" height="80" as="geometry" />
        </mxCell>
        <mxCell id="XZ0jSYDA-IjN7aamsQHR-8" style="edgeStyle=none;shape=connector;rounded=0;orthogonalLoop=1;jettySize=auto;html=1;exitX=1;exitY=0.5;exitDx=0;exitDy=0;entryX=1;entryY=0.75;entryDx=0;entryDy=0;labelBackgroundColor=default;strokeColor=default;align=center;verticalAlign=middle;fontFamily=Helvetica;fontSize=11;fontColor=default;endArrow=none;endFill=0;" edge="1" parent="1" source="XZ0jSYDA-IjN7aamsQHR-2" target="XZ0jSYDA-IjN7aamsQHR-2">
          <mxGeometry relative="1" as="geometry" />
        </mxCell>
        <mxCell id="XZ0jSYDA-IjN7aamsQHR-91" style="edgeStyle=none;shape=connector;rounded=0;orthogonalLoop=1;jettySize=auto;html=1;exitX=1;exitY=1;exitDx=0;exitDy=0;labelBackgroundColor=default;strokeColor=default;align=center;verticalAlign=middle;fontFamily=Helvetica;fontSize=11;fontColor=default;endArrow=none;endFill=0;" edge="1" parent="1" source="XZ0jSYDA-IjN7aamsQHR-9" target="XZ0jSYDA-IjN7aamsQHR-92">
          <mxGeometry relative="1" as="geometry">
            <mxPoint x="772.8600000000005" y="323.29" as="targetPoint" />
          </mxGeometry>
        </mxCell>
        <mxCell id="XZ0jSYDA-IjN7aamsQHR-9" value="Account_BillingAccount" style="rhombus;whiteSpace=wrap;html=1;fontFamily=Helvetica;fontSize=11;fontColor=default;" vertex="1" parent="1">
          <mxGeometry x="602.86" y="203.29000000000002" width="150" height="80" as="geometry" />
        </mxCell>
        <mxCell id="XZ0jSYDA-IjN7aamsQHR-16" value="" style="edgeStyle=none;shape=connector;rounded=0;orthogonalLoop=1;jettySize=auto;html=1;labelBackgroundColor=default;strokeColor=default;align=center;verticalAlign=middle;fontFamily=Helvetica;fontSize=11;fontColor=default;endArrow=none;endFill=0;" edge="1" parent="1" source="XZ0jSYDA-IjN7aamsQHR-14" target="XZ0jSYDA-IjN7aamsQHR-15">
          <mxGeometry relative="1" as="geometry" />
        </mxCell>
        <mxCell id="XZ0jSYDA-IjN7aamsQHR-18" value="n" style="edgeLabel;html=1;align=center;verticalAlign=middle;resizable=0;points=[];fontSize=11;fontFamily=Helvetica;fontColor=default;" vertex="1" connectable="0" parent="XZ0jSYDA-IjN7aamsQHR-16">
          <mxGeometry x="0.1331" y="-3" relative="1" as="geometry">
            <mxPoint as="offset" />
          </mxGeometry>
        </mxCell>
        <mxCell id="XZ0jSYDA-IjN7aamsQHR-14" value="Acct_AcctAdmin" style="rhombus;whiteSpace=wrap;html=1;fontFamily=Helvetica;fontSize=11;fontColor=default;" vertex="1" parent="1">
          <mxGeometry x="572.86" y="303.29" width="100" height="100" as="geometry" />
        </mxCell>
        <mxCell id="XZ0jSYDA-IjN7aamsQHR-15" value="AccountAdmin" style="rounded=1;whiteSpace=wrap;html=1;fontSize=11;" vertex="1" parent="1">
          <mxGeometry x="762.8600000000005" y="413.29" width="120" height="60" as="geometry" />
        </mxCell>
        <mxCell id="XZ0jSYDA-IjN7aamsQHR-22" value="" style="edgeStyle=none;shape=connector;rounded=0;orthogonalLoop=1;jettySize=auto;html=1;labelBackgroundColor=default;strokeColor=default;align=center;verticalAlign=middle;fontFamily=Helvetica;fontSize=11;fontColor=default;endArrow=none;endFill=0;exitX=0;exitY=0.5;exitDx=0;exitDy=0;entryX=1;entryY=0.5;entryDx=0;entryDy=0;" edge="1" parent="1" source="XZ0jSYDA-IjN7aamsQHR-20" target="XZ0jSYDA-IjN7aamsQHR-21">
          <mxGeometry relative="1" as="geometry" />
        </mxCell>
        <mxCell id="XZ0jSYDA-IjN7aamsQHR-24" value="m" style="edgeLabel;html=1;align=center;verticalAlign=middle;resizable=0;points=[];fontSize=11;fontFamily=Helvetica;fontColor=default;" vertex="1" connectable="0" parent="XZ0jSYDA-IjN7aamsQHR-22">
          <mxGeometry x="0.1162" y="-3" relative="1" as="geometry">
            <mxPoint as="offset" />
          </mxGeometry>
        </mxCell>
        <mxCell id="XZ0jSYDA-IjN7aamsQHR-20" value="has" style="rhombus;whiteSpace=wrap;html=1;fontFamily=Helvetica;fontSize=11;fontColor=default;" vertex="1" parent="1">
          <mxGeometry x="190" y="188.29000000000002" width="80" height="80" as="geometry" />
        </mxCell>
        <mxCell id="XZ0jSYDA-IjN7aamsQHR-21" value="AccountMember" style="rounded=1;whiteSpace=wrap;html=1;fontSize=11;" vertex="1" parent="1">
          <mxGeometry x="30.000000000000455" y="198.29000000000002" width="120" height="60" as="geometry" />
        </mxCell>
        <mxCell id="XZ0jSYDA-IjN7aamsQHR-26" value="CompanyCode" style="ellipse;whiteSpace=wrap;html=1;fontFamily=Helvetica;fontSize=11;fontColor=default;" vertex="1" parent="1">
          <mxGeometry x="412.86" y="363.29" width="120" height="80" as="geometry" />
        </mxCell>
        <mxCell id="XZ0jSYDA-IjN7aamsQHR-29" style="edgeStyle=none;shape=connector;rounded=0;orthogonalLoop=1;jettySize=auto;html=1;exitX=0;exitY=0;exitDx=0;exitDy=0;labelBackgroundColor=default;strokeColor=default;align=center;verticalAlign=middle;fontFamily=Helvetica;fontSize=11;fontColor=default;endArrow=none;endFill=0;" edge="1" parent="1" source="XZ0jSYDA-IjN7aamsQHR-28" target="XZ0jSYDA-IjN7aamsQHR-30">
          <mxGeometry relative="1" as="geometry">
            <mxPoint x="-60" y="-120" as="targetPoint" />
          </mxGeometry>
        </mxCell>
        <mxCell id="XZ0jSYDA-IjN7aamsQHR-37" value="m" style="edgeLabel;html=1;align=center;verticalAlign=middle;resizable=0;points=[];fontSize=11;fontFamily=Helvetica;fontColor=default;" vertex="1" connectable="0" parent="XZ0jSYDA-IjN7aamsQHR-29">
          <mxGeometry x="-0.0916" y="1" relative="1" as="geometry">
            <mxPoint x="1" as="offset" />
          </mxGeometry>
        </mxCell>
        <mxCell id="XZ0jSYDA-IjN7aamsQHR-28" value="Serve" style="rhombus;whiteSpace=wrap;html=1;fontFamily=Helvetica;fontSize=11;fontColor=default;" vertex="1" parent="1">
          <mxGeometry x="150" y="80" width="80" height="80" as="geometry" />
        </mxCell>
        <mxCell id="XZ0jSYDA-IjN7aamsQHR-33" style="edgeStyle=none;shape=connector;rounded=0;orthogonalLoop=1;jettySize=auto;html=1;exitX=1;exitY=0;exitDx=0;exitDy=0;labelBackgroundColor=default;strokeColor=default;align=center;verticalAlign=middle;fontFamily=Helvetica;fontSize=11;fontColor=default;endArrow=none;endFill=0;" edge="1" parent="1" source="XZ0jSYDA-IjN7aamsQHR-30" target="XZ0jSYDA-IjN7aamsQHR-32">
          <mxGeometry relative="1" as="geometry" />
        </mxCell>
        <mxCell id="XZ0jSYDA-IjN7aamsQHR-35" value="m" style="edgeLabel;html=1;align=center;verticalAlign=middle;resizable=0;points=[];fontSize=11;fontFamily=Helvetica;fontColor=default;" vertex="1" connectable="0" parent="XZ0jSYDA-IjN7aamsQHR-33">
          <mxGeometry x="0.1235" y="-1" relative="1" as="geometry">
            <mxPoint x="-1" as="offset" />
          </mxGeometry>
        </mxCell>
        <mxCell id="XZ0jSYDA-IjN7aamsQHR-38" style="edgeStyle=none;shape=link;rounded=0;orthogonalLoop=1;jettySize=auto;html=1;labelBackgroundColor=default;strokeColor=default;align=center;verticalAlign=middle;fontFamily=Helvetica;fontSize=11;fontColor=default;endArrow=none;endFill=0;exitX=0;exitY=0.5;exitDx=0;exitDy=0;" edge="1" parent="1" source="XZ0jSYDA-IjN7aamsQHR-75" target="XZ0jSYDA-IjN7aamsQHR-42">
          <mxGeometry relative="1" as="geometry">
            <mxPoint x="-1008.5" y="-430" as="targetPoint" />
            <mxPoint x="-803" y="-380" as="sourcePoint" />
          </mxGeometry>
        </mxCell>
        <mxCell id="XZ0jSYDA-IjN7aamsQHR-73" value="n" style="edgeLabel;html=1;align=center;verticalAlign=middle;resizable=0;points=[];fontSize=11;fontFamily=Helvetica;fontColor=default;" vertex="1" connectable="0" parent="XZ0jSYDA-IjN7aamsQHR-38">
          <mxGeometry x="0.0176" y="1" relative="1" as="geometry">
            <mxPoint x="171" y="13" as="offset" />
          </mxGeometry>
        </mxCell>
        <mxCell id="XZ0jSYDA-IjN7aamsQHR-45" style="edgeStyle=none;shape=connector;rounded=0;orthogonalLoop=1;jettySize=auto;html=1;exitX=0;exitY=0;exitDx=0;exitDy=0;labelBackgroundColor=default;strokeColor=default;align=center;verticalAlign=middle;fontFamily=Helvetica;fontSize=11;fontColor=default;endArrow=none;endFill=0;" edge="1" parent="1" source="XZ0jSYDA-IjN7aamsQHR-30" target="XZ0jSYDA-IjN7aamsQHR-46">
          <mxGeometry relative="1" as="geometry">
            <mxPoint x="-160" y="-130" as="targetPoint" />
          </mxGeometry>
        </mxCell>
        <mxCell id="XZ0jSYDA-IjN7aamsQHR-54" value="1" style="edgeLabel;html=1;align=center;verticalAlign=middle;resizable=0;points=[];fontSize=11;fontFamily=Helvetica;fontColor=default;" vertex="1" connectable="0" parent="XZ0jSYDA-IjN7aamsQHR-45">
          <mxGeometry x="-0.063" relative="1" as="geometry">
            <mxPoint as="offset" />
          </mxGeometry>
        </mxCell>
        <mxCell id="XZ0jSYDA-IjN7aamsQHR-82" style="edgeStyle=none;shape=connector;rounded=0;orthogonalLoop=1;jettySize=auto;html=1;exitX=0.25;exitY=0;exitDx=0;exitDy=0;labelBackgroundColor=default;strokeColor=default;align=center;verticalAlign=middle;fontFamily=Helvetica;fontSize=11;fontColor=default;endArrow=none;endFill=0;" edge="1" parent="1" source="XZ0jSYDA-IjN7aamsQHR-30" target="XZ0jSYDA-IjN7aamsQHR-83">
          <mxGeometry relative="1" as="geometry">
            <mxPoint x="-110" y="-250" as="targetPoint" />
          </mxGeometry>
        </mxCell>
        <mxCell id="XZ0jSYDA-IjN7aamsQHR-84" style="edgeStyle=none;shape=connector;rounded=0;orthogonalLoop=1;jettySize=auto;html=1;exitX=0.5;exitY=0;exitDx=0;exitDy=0;labelBackgroundColor=default;strokeColor=default;align=center;verticalAlign=middle;fontFamily=Helvetica;fontSize=11;fontColor=default;endArrow=none;endFill=0;" edge="1" parent="1" source="XZ0jSYDA-IjN7aamsQHR-30" target="XZ0jSYDA-IjN7aamsQHR-85">
          <mxGeometry relative="1" as="geometry">
            <mxPoint x="-50" y="-330" as="targetPoint" />
          </mxGeometry>
        </mxCell>
        <mxCell id="XZ0jSYDA-IjN7aamsQHR-86" style="edgeStyle=none;shape=connector;rounded=0;orthogonalLoop=1;jettySize=auto;html=1;exitX=0.75;exitY=0;exitDx=0;exitDy=0;labelBackgroundColor=default;strokeColor=default;align=center;verticalAlign=middle;fontFamily=Helvetica;fontSize=11;fontColor=default;endArrow=none;endFill=0;" edge="1" parent="1" source="XZ0jSYDA-IjN7aamsQHR-30" target="XZ0jSYDA-IjN7aamsQHR-87">
          <mxGeometry relative="1" as="geometry">
            <mxPoint x="40" y="-240" as="targetPoint" />
          </mxGeometry>
        </mxCell>
        <mxCell id="XZ0jSYDA-IjN7aamsQHR-95" style="edgeStyle=none;shape=connector;rounded=0;orthogonalLoop=1;jettySize=auto;html=1;exitX=1;exitY=0.5;exitDx=0;exitDy=0;entryX=0;entryY=0.5;entryDx=0;entryDy=0;labelBackgroundColor=default;strokeColor=default;align=center;verticalAlign=middle;fontFamily=Helvetica;fontSize=11;fontColor=default;endArrow=none;endFill=0;" edge="1" parent="1" source="XZ0jSYDA-IjN7aamsQHR-30" target="XZ0jSYDA-IjN7aamsQHR-94">
          <mxGeometry relative="1" as="geometry" />
        </mxCell>
        <mxCell id="XZ0jSYDA-IjN7aamsQHR-96" value="n" style="edgeLabel;html=1;align=center;verticalAlign=middle;resizable=0;points=[];fontSize=11;fontFamily=Helvetica;fontColor=default;" vertex="1" connectable="0" parent="XZ0jSYDA-IjN7aamsQHR-95">
          <mxGeometry x="0.0949" relative="1" as="geometry">
            <mxPoint as="offset" />
          </mxGeometry>
        </mxCell>
        <mxCell id="XZ0jSYDA-IjN7aamsQHR-30" value="ManagerContract" style="rounded=1;whiteSpace=wrap;html=1;fontFamily=Helvetica;fontSize=11;fontColor=default;" vertex="1" parent="1">
          <mxGeometry x="-50" y="-100" width="120" height="60" as="geometry" />
        </mxCell>
        <mxCell id="XZ0jSYDA-IjN7aamsQHR-32" value="Manages" style="rhombus;whiteSpace=wrap;html=1;fontFamily=Helvetica;fontSize=11;fontColor=default;" vertex="1" parent="1">
          <mxGeometry x="105" y="-240" width="110" height="110" as="geometry" />
        </mxCell>
        <mxCell id="XZ0jSYDA-IjN7aamsQHR-43" style="edgeStyle=none;shape=connector;rounded=0;orthogonalLoop=1;jettySize=auto;html=1;exitX=0;exitY=0;exitDx=0;exitDy=0;labelBackgroundColor=default;strokeColor=default;align=center;verticalAlign=middle;fontFamily=Helvetica;fontSize=11;fontColor=default;endArrow=none;endFill=0;" edge="1" parent="1" source="XZ0jSYDA-IjN7aamsQHR-42" target="XZ0jSYDA-IjN7aamsQHR-44">
          <mxGeometry relative="1" as="geometry">
            <mxPoint x="-1013" y="-457.5" as="targetPoint" />
          </mxGeometry>
        </mxCell>
        <mxCell id="XZ0jSYDA-IjN7aamsQHR-47" style="edgeStyle=none;shape=connector;rounded=0;orthogonalLoop=1;jettySize=auto;html=1;exitX=0;exitY=0.634;exitDx=0;exitDy=0;labelBackgroundColor=default;strokeColor=default;align=center;verticalAlign=middle;fontFamily=Helvetica;fontSize=11;fontColor=default;endArrow=none;endFill=0;exitPerimeter=0;" edge="1" parent="1" source="XZ0jSYDA-IjN7aamsQHR-42" target="XZ0jSYDA-IjN7aamsQHR-48">
          <mxGeometry relative="1" as="geometry">
            <mxPoint x="-870" y="-265" as="targetPoint" />
          </mxGeometry>
        </mxCell>
        <mxCell id="XZ0jSYDA-IjN7aamsQHR-42" value="&lt;font style=&quot;font-size: 25px;&quot;&gt;D&lt;/font&gt;" style="ellipse;whiteSpace=wrap;html=1;aspect=fixed;fontFamily=Helvetica;fontSize=11;fontColor=default;" vertex="1" parent="1">
          <mxGeometry x="-780" y="-295" width="80" height="80" as="geometry" />
        </mxCell>
        <mxCell id="XZ0jSYDA-IjN7aamsQHR-44" value="Associate Commissions" style="rounded=1;whiteSpace=wrap;html=1;fontFamily=Helvetica;fontSize=11;fontColor=default;" vertex="1" parent="1">
          <mxGeometry x="-880" y="-375" width="120" height="60" as="geometry" />
        </mxCell>
        <mxCell id="XZ0jSYDA-IjN7aamsQHR-49" style="edgeStyle=none;shape=connector;rounded=0;orthogonalLoop=1;jettySize=auto;html=1;exitX=0;exitY=0;exitDx=0;exitDy=0;labelBackgroundColor=default;strokeColor=default;align=center;verticalAlign=middle;fontFamily=Helvetica;fontSize=11;fontColor=default;endArrow=none;endFill=0;" edge="1" parent="1" source="XZ0jSYDA-IjN7aamsQHR-46" target="XZ0jSYDA-IjN7aamsQHR-50">
          <mxGeometry relative="1" as="geometry">
            <mxPoint x="-240" y="-200" as="targetPoint" />
          </mxGeometry>
        </mxCell>
        <mxCell id="XZ0jSYDA-IjN7aamsQHR-55" value="n" style="edgeLabel;html=1;align=center;verticalAlign=middle;resizable=0;points=[];fontSize=11;fontFamily=Helvetica;fontColor=default;" vertex="1" connectable="0" parent="XZ0jSYDA-IjN7aamsQHR-49">
          <mxGeometry x="-0.2016" y="-3" relative="1" as="geometry">
            <mxPoint as="offset" />
          </mxGeometry>
        </mxCell>
        <mxCell id="XZ0jSYDA-IjN7aamsQHR-46" value="Gains" style="rhombus;whiteSpace=wrap;html=1;fontFamily=Helvetica;fontSize=11;fontColor=default;" vertex="1" parent="1">
          <mxGeometry x="-185" y="-185" width="85" height="85" as="geometry" />
        </mxCell>
        <mxCell id="XZ0jSYDA-IjN7aamsQHR-48" value="Production Credit" style="rounded=1;whiteSpace=wrap;html=1;fontFamily=Helvetica;fontSize=11;fontColor=default;" vertex="1" parent="1">
          <mxGeometry x="-930" y="-250" width="120" height="60" as="geometry" />
        </mxCell>
        <mxCell id="XZ0jSYDA-IjN7aamsQHR-68" style="edgeStyle=none;shape=connector;rounded=0;orthogonalLoop=1;jettySize=auto;html=1;exitX=0;exitY=0.5;exitDx=0;exitDy=0;labelBackgroundColor=default;strokeColor=default;align=center;verticalAlign=middle;fontFamily=Helvetica;fontSize=11;fontColor=default;endArrow=none;endFill=0;" edge="1" parent="1" source="XZ0jSYDA-IjN7aamsQHR-50" target="XZ0jSYDA-IjN7aamsQHR-69">
          <mxGeometry relative="1" as="geometry">
            <mxPoint x="-440" y="-230" as="targetPoint" />
          </mxGeometry>
        </mxCell>
        <mxCell id="XZ0jSYDA-IjN7aamsQHR-71" value="1" style="edgeLabel;html=1;align=center;verticalAlign=middle;resizable=0;points=[];fontSize=11;fontFamily=Helvetica;fontColor=default;" vertex="1" connectable="0" parent="XZ0jSYDA-IjN7aamsQHR-68">
          <mxGeometry x="-0.0643" y="6" relative="1" as="geometry">
            <mxPoint x="1" as="offset" />
          </mxGeometry>
        </mxCell>
        <mxCell id="XZ0jSYDA-IjN7aamsQHR-50" value="ContractBenefit" style="rounded=1;whiteSpace=wrap;html=1;fontFamily=Helvetica;fontSize=11;fontColor=default;" vertex="1" parent="1">
          <mxGeometry x="-330" y="-230" width="120" height="60" as="geometry" />
        </mxCell>
        <mxCell id="XZ0jSYDA-IjN7aamsQHR-59" value="Owns" style="rhombus;whiteSpace=wrap;html=1;fontFamily=Helvetica;fontSize=11;fontColor=default;" vertex="1" parent="1">
          <mxGeometry x="-160" y="-15" width="80" height="80" as="geometry" />
        </mxCell>
        <mxCell id="XZ0jSYDA-IjN7aamsQHR-60" style="edgeStyle=none;shape=connector;rounded=0;orthogonalLoop=1;jettySize=auto;html=1;exitX=1;exitY=0;exitDx=0;exitDy=0;entryX=0.16;entryY=1.031;entryDx=0;entryDy=0;entryPerimeter=0;labelBackgroundColor=default;strokeColor=default;align=center;verticalAlign=middle;fontFamily=Helvetica;fontSize=11;fontColor=default;endArrow=none;endFill=0;" edge="1" parent="1" source="XZ0jSYDA-IjN7aamsQHR-59" target="XZ0jSYDA-IjN7aamsQHR-30">
          <mxGeometry relative="1" as="geometry" />
        </mxCell>
        <mxCell id="XZ0jSYDA-IjN7aamsQHR-61" value="m" style="edgeLabel;html=1;align=center;verticalAlign=middle;resizable=0;points=[];fontSize=11;fontFamily=Helvetica;fontColor=default;" vertex="1" connectable="0" parent="XZ0jSYDA-IjN7aamsQHR-60">
          <mxGeometry x="0.3633" y="1" relative="1" as="geometry">
            <mxPoint y="1" as="offset" />
          </mxGeometry>
        </mxCell>
        <mxCell id="XZ0jSYDA-IjN7aamsQHR-65" style="edgeStyle=none;shape=connector;rounded=0;orthogonalLoop=1;jettySize=auto;html=1;exitX=0.5;exitY=0;exitDx=0;exitDy=0;entryX=0.5;entryY=1;entryDx=0;entryDy=0;labelBackgroundColor=default;strokeColor=default;align=center;verticalAlign=middle;fontFamily=Helvetica;fontSize=11;fontColor=default;endArrow=none;endFill=0;" edge="1" parent="1" source="XZ0jSYDA-IjN7aamsQHR-64" target="XZ0jSYDA-IjN7aamsQHR-50">
          <mxGeometry relative="1" as="geometry" />
        </mxCell>
        <mxCell id="XZ0jSYDA-IjN7aamsQHR-66" value="m" style="edgeLabel;html=1;align=center;verticalAlign=middle;resizable=0;points=[];fontSize=11;fontFamily=Helvetica;fontColor=default;" vertex="1" connectable="0" parent="XZ0jSYDA-IjN7aamsQHR-65">
          <mxGeometry x="-0.2762" y="2" relative="1" as="geometry">
            <mxPoint y="-1" as="offset" />
          </mxGeometry>
        </mxCell>
        <mxCell id="XZ0jSYDA-IjN7aamsQHR-64" value="benefit" style="rhombus;whiteSpace=wrap;html=1;fontFamily=Helvetica;fontSize=11;fontColor=default;" vertex="1" parent="1">
          <mxGeometry x="-280" y="-50" width="80" height="80" as="geometry" />
        </mxCell>
        <mxCell id="XZ0jSYDA-IjN7aamsQHR-74" style="edgeStyle=none;shape=connector;rounded=0;orthogonalLoop=1;jettySize=auto;html=1;exitX=0;exitY=0.5;exitDx=0;exitDy=0;labelBackgroundColor=default;strokeColor=default;align=center;verticalAlign=middle;fontFamily=Helvetica;fontSize=11;fontColor=default;endArrow=none;endFill=0;" edge="1" parent="1" source="XZ0jSYDA-IjN7aamsQHR-69" target="XZ0jSYDA-IjN7aamsQHR-75">
          <mxGeometry relative="1" as="geometry">
            <mxPoint x="-520" y="-310" as="targetPoint" />
          </mxGeometry>
        </mxCell>
        <mxCell id="XZ0jSYDA-IjN7aamsQHR-69" value="has" style="rhombus;whiteSpace=wrap;html=1;fontFamily=Helvetica;fontSize=11;fontColor=default;" vertex="1" parent="1">
          <mxGeometry x="-480" y="-270" width="80" height="80" as="geometry" />
        </mxCell>
        <mxCell id="XZ0jSYDA-IjN7aamsQHR-76" style="edgeStyle=none;shape=connector;rounded=0;orthogonalLoop=1;jettySize=auto;html=1;exitX=0.5;exitY=0;exitDx=0;exitDy=0;labelBackgroundColor=default;strokeColor=default;align=center;verticalAlign=middle;fontFamily=Helvetica;fontSize=11;fontColor=default;endArrow=none;endFill=0;" edge="1" parent="1" source="XZ0jSYDA-IjN7aamsQHR-75" target="XZ0jSYDA-IjN7aamsQHR-77">
          <mxGeometry relative="1" as="geometry">
            <mxPoint x="-570" y="-370" as="targetPoint" />
          </mxGeometry>
        </mxCell>
        <mxCell id="XZ0jSYDA-IjN7aamsQHR-75" value="ContractPremium" style="rounded=1;whiteSpace=wrap;html=1;fontFamily=Helvetica;fontSize=11;fontColor=default;" vertex="1" parent="1">
          <mxGeometry x="-660" y="-270" width="120" height="60" as="geometry" />
        </mxCell>
        <mxCell id="XZ0jSYDA-IjN7aamsQHR-77" value="PremiumCode" style="ellipse;whiteSpace=wrap;html=1;fontFamily=Helvetica;fontSize=11;fontColor=default;" vertex="1" parent="1">
          <mxGeometry x="-644" y="-375" width="120" height="80" as="geometry" />
        </mxCell>
        <mxCell id="XZ0jSYDA-IjN7aamsQHR-83" value="ContractNumber" style="ellipse;whiteSpace=wrap;html=1;fontFamily=Helvetica;fontSize=11;fontColor=default;" vertex="1" parent="1">
          <mxGeometry x="-255" y="-320" width="120" height="80" as="geometry" />
        </mxCell>
        <mxCell id="XZ0jSYDA-IjN7aamsQHR-85" value="ActivityStatus" style="ellipse;whiteSpace=wrap;html=1;fontFamily=Helvetica;fontSize=11;fontColor=default;" vertex="1" parent="1">
          <mxGeometry x="-135" y="-320" width="120" height="80" as="geometry" />
        </mxCell>
        <mxCell id="XZ0jSYDA-IjN7aamsQHR-87" value="BillingMethod" style="ellipse;whiteSpace=wrap;html=1;fontFamily=Helvetica;fontSize=11;fontColor=default;" vertex="1" parent="1">
          <mxGeometry x="-10" y="-310" width="120" height="80" as="geometry" />
        </mxCell>
        <mxCell id="XZ0jSYDA-IjN7aamsQHR-92" value="RelationshipType" style="ellipse;whiteSpace=wrap;html=1;fontFamily=Helvetica;fontSize=11;fontColor=default;" vertex="1" parent="1">
          <mxGeometry x="712.8600000000005" y="283.29" width="120" height="80" as="geometry" />
        </mxCell>
        <mxCell id="XZ0jSYDA-IjN7aamsQHR-94" value="belongs to" style="rhombus;whiteSpace=wrap;html=1;fontFamily=Helvetica;fontSize=11;fontColor=default;" vertex="1" parent="1">
          <mxGeometry x="105" y="-80" width="80" height="80" as="geometry" />
        </mxCell>
      </root>
    </mxGraphModel>
  </diagram>
</mxfile>
